<svg width="151" height="22" viewBox="0 0 151 22" fill="none" xmlns="http://www.w3.org/2000/svg">
<path fill-rule="evenodd" clip-rule="evenodd" d="M150.688 10.2486C150.888 10.448 151 10.7182 151 11C151 11.2818 150.888 11.552 150.688 11.7514L140.755 21.675C140.657 21.7766 140.539 21.8577 140.409 21.9135C140.279 21.9693 140.139 21.9987 139.997 22C139.856 22.0012 139.715 21.9744 139.584 21.921C139.453 21.8676 139.334 21.7887 139.234 21.6889C139.134 21.5892 139.055 21.4705 139.001 21.3398C138.947 21.2092 138.92 21.0692 138.921 20.928C138.923 20.7868 138.952 20.6473 139.008 20.5176C139.063 20.3878 139.145 20.2704 139.246 20.1723L147.361 12.0647L-65.9323 12.0803C-66.2151 12.0806 -66.4865 11.969 -66.6867 11.7698C-66.8869 11.5707 -66.9996 11.3004 -67 11.0184C-67.0004 10.7364 -66.8884 10.4658 -66.6887 10.2662C-66.489 10.0665 -66.218 9.95414 -65.9352 9.95376L147.364 9.93958L139.245 1.82768C139.143 1.72955 139.062 1.61219 139.006 1.48244C138.95 1.3527 138.921 1.21316 138.92 1.07199C138.919 0.930808 138.946 0.790813 138.999 0.660169C139.053 0.529525 139.132 0.410849 139.233 0.311065C139.333 0.211281 139.452 0.132387 139.583 0.0789875C139.714 0.0255879 139.854 -0.00124831 139.996 4.45883e-05C140.137 0.00133749 140.277 0.0307339 140.407 0.0865181C140.538 0.142302 140.655 0.223357 140.753 0.324954L150.688 10.2486Z" fill="#1A1A1A"/>
</svg>
