<svg width="218" height="22" viewBox="0 0 218 22" fill="none" xmlns="http://www.w3.org/2000/svg">
<path fill-rule="evenodd" clip-rule="evenodd" d="M217.688 10.2486C217.888 10.448 218 10.7182 218 11C218 11.2818 217.888 11.552 217.688 11.7514L207.755 21.675C207.657 21.7766 207.539 21.8577 207.409 21.9135C207.279 21.9693 207.139 21.9987 206.997 22C206.856 22.0012 206.715 21.9744 206.584 21.921C206.453 21.8676 206.334 21.7887 206.234 21.6889C206.134 21.5891 206.055 21.4705 206.001 21.3398C205.947 21.2092 205.92 21.0692 205.921 20.928C205.923 20.7868 205.952 20.6473 206.008 20.5176C206.063 20.3878 206.145 20.2704 206.246 20.1723L214.361 12.0647L1.06767 12.0803C0.784882 12.0806 0.513519 11.969 0.313293 11.7698C0.113068 11.5707 0.00038147 11.3004 0 11.0184C-0.00038147 10.7364 0.111588 10.4658 0.311279 10.2662C0.510971 10.0665 0.782028 9.95414 1.06482 9.95376L214.364 9.93958L206.245 1.82768C206.143 1.72955 206.062 1.61219 206.006 1.48244C205.95 1.3527 205.921 1.21316 205.92 1.07199C205.919 0.930808 205.946 0.790813 205.999 0.660169C206.053 0.529525 206.132 0.410849 206.233 0.311065C206.333 0.211281 206.452 0.132387 206.583 0.0789875C206.714 0.0255879 206.854 -0.00124831 206.996 4.45883e-05C207.137 0.00133749 207.277 0.0307339 207.407 0.0865181C207.538 0.142302 207.655 0.223357 207.753 0.324954L217.688 10.2486Z" fill="#F5EFE6"/>
</svg>
