<svg xmlns="http://www.w3.org/2000/svg" width="640" height="640" viewBox="0 0 640 640">
<g>
<path d="M 303.81 611.75 C295.05,602.81 275.89,583.48 261.23,568.79 L 234.58 542.07 L 239.04 540.14 C248.34,536.12 244.40,533.22 284.29,573.43 L 320.56 609.99 L 361.66 568.75 C409.22,521.01 407.43,523.48 407.47,505.50 C407.49,495.80 407.37,495.26 403.50,487.60 C400.50,481.67 396.95,477.00 389.25,468.88 L 379.00 458.05 L 379.00 450.09 C379.00,445.70 379.36,441.89 379.81,441.62 C380.85,440.97 403.30,463.80 408.71,471.00 C413.80,477.77 417.83,485.68 419.62,492.41 C421.42,499.18 421.36,512.20 419.49,519.37 C415.84,533.38 416.05,533.13 367.14,582.25 C342.09,607.41 321.17,628.00 320.66,628.00 C320.15,628.00 312.57,620.69 303.81,611.75 ZM 102.00 478.00 C102.00,444.45 102.32,417.00 102.70,417.00 C103.09,417.00 106.02,418.20 109.20,419.68 L 115.00 422.35 L 115.00 474.21 L 115.00 526.08 L 173.25 525.79 L 231.50 525.50 L 238.24 522.31 C249.67,516.89 257.98,506.71 261.72,493.50 C262.50,490.75 263.39,482.10 263.70,474.29 L 264.27 460.07 L 268.45 455.79 C270.75,453.43 273.67,450.60 274.93,449.50 L 277.24 447.50 L 276.74 469.00 C276.32,486.98 275.87,491.81 274.04,498.50 C270.13,512.72 261.30,524.08 248.00,531.98 C235.86,539.19 238.11,539.00 166.32,539.00 L 102.00 539.00 L 102.00 478.00 ZM 417.34 536.44 C417.12,535.86 418.11,532.81 419.55,529.67 L 422.17 523.95 L 472.83 524.00 C500.70,524.03 524.08,524.04 524.79,524.03 C525.83,524.01 526.02,512.94 525.79,466.75 L 525.50 409.50 L 523.14 403.66 C518.52,392.19 509.03,383.26 496.99,379.05 C491.75,377.22 487.57,376.68 475.36,376.25 L 460.21 375.72 L 454.01 369.61 L 447.80 363.50 L 466.65 363.22 C492.98,362.83 502.62,364.91 515.80,373.87 C525.19,380.24 533.68,391.88 537.06,403.00 C538.94,409.22 539.02,412.24 538.76,473.50 L 538.50 537.50 L 478.12 537.50 C436.62,537.50 417.62,537.17 417.34,536.44 ZM 388.37 530.29 C379.93,524.70 371.28,513.92 367.60,504.41 C363.11,492.81 363.03,491.43 362.98,425.91 L 362.94 363.50 L 390.67 363.23 L 418.41 362.97 L 424.20 368.70 C427.39,371.86 430.00,374.79 430.00,375.22 C430.00,375.65 417.83,376.00 402.96,376.00 L 375.92 376.00 L 376.21 433.75 C376.50,491.41 376.50,491.51 378.79,496.89 C382.44,505.49 387.95,512.96 394.20,517.82 C397.39,520.29 400.00,522.85 400.00,523.50 C400.00,524.94 394.93,531.72 393.37,532.38 C392.75,532.63 390.50,531.69 388.37,530.29 ZM 219.65 518.29 C218.52,511.46 218.97,498.91 220.57,492.64 C221.43,489.26 223.76,483.12 225.74,479.00 C229.16,471.90 231.77,469.07 274.65,426.00 L 319.96 380.50 L 339.48 399.99 L 359.00 419.48 L 359.00 428.24 C359.00,433.06 358.66,437.00 358.24,437.00 C357.82,437.00 349.16,428.67 339.00,418.50 C328.84,408.33 320.09,400.00 319.56,400.00 C319.03,400.00 301.25,417.45 280.05,438.77 C239.08,479.97 237.30,482.13 233.48,495.39 C232.23,499.72 231.87,503.96 232.14,511.39 L 232.50 521.50 L 226.39 521.79 L 220.28 522.09 L 219.65 518.29 ZM 264.00 403.00 L 264.00 376.00 L 210.18 376.00 C175.64,376.00 154.24,376.39 150.43,377.09 C139.21,379.15 123.47,389.32 119.45,397.11 C117.46,400.94 114.84,400.79 110.27,396.61 C105.88,392.59 106.14,391.53 113.45,383.30 C121.03,374.77 131.51,368.53 144.14,365.03 C151.14,363.09 154.24,363.00 214.23,363.00 L 277.00 363.00 L 277.00 390.48 L 277.00 417.97 L 271.35 423.98 C268.25,427.29 265.32,430.00 264.85,430.00 C264.38,430.00 264.00,417.85 264.00,403.00 ZM 119.21 419.44 C105.97,415.88 105.73,415.68 56.64,366.88 L 10.50 321.01 L 54.00 278.07 C77.93,254.46 97.76,235.44 98.08,235.82 C98.40,236.19 99.61,239.04 100.76,242.15 L 102.85 247.79 L 66.18 284.39 L 29.50 320.99 L 68.50 360.03 C89.95,381.50 109.53,400.37 112.00,401.95 C119.07,406.48 126.99,408.34 136.64,407.74 C148.83,406.98 157.09,402.62 170.42,389.89 L 180.67 380.10 L 188.81 379.86 C193.29,379.73 197.27,379.94 197.67,380.33 C198.56,381.22 173.50,405.87 167.51,409.99 C161.22,414.32 153.52,418.04 147.59,419.62 C141.04,421.37 126.00,421.27 119.21,419.44 ZM 497.50 420.35 C487.09,418.18 478.62,414.63 470.76,409.13 C465.92,405.74 380.34,320.34 381.04,319.60 C381.29,319.33 390.02,310.54 400.44,300.06 L 419.39 281.00 L 428.19 281.00 C433.04,281.00 437.00,281.24 437.00,281.52 C437.00,281.81 428.67,290.27 418.50,300.33 C408.33,310.38 400.00,319.17 400.00,319.85 C400.00,320.53 417.56,338.51 439.02,359.79 C473.02,393.52 478.93,398.96 484.96,402.10 C493.81,406.71 501.45,408.30 512.60,407.85 L 521.50 407.50 L 521.80 413.19 L 522.10 418.88 L 518.30 419.93 C514.64,420.95 501.63,421.21 497.50,420.35 ZM 539.02 398.34 L 536.65 391.64 L 573.29 355.38 L 609.92 319.12 L 569.71 279.01 C522.16,231.59 523.41,232.49 506.02,232.51 C496.62,232.52 494.87,232.81 489.53,235.30 C481.89,238.87 474.43,244.53 466.00,253.13 L 459.31 259.98 L 450.64 260.14 C445.87,260.23 441.75,260.09 441.49,259.82 C440.63,258.96 466.60,233.92 472.64,229.78 C483.91,222.07 493.35,219.02 506.00,219.02 C516.04,219.02 522.58,220.60 531.55,225.16 C537.31,228.08 543.74,234.13 583.39,273.80 L 628.65 319.10 L 585.78 361.80 C562.19,385.29 542.56,404.62 542.14,404.77 C541.72,404.92 540.32,402.02 539.02,398.34 ZM 203.00 358.26 C203.00,357.85 211.44,349.07 221.75,338.74 L 240.50 319.96 L 201.00 280.59 C167.25,246.96 160.59,240.77 155.22,238.09 C145.85,233.40 138.22,231.76 127.63,232.16 L 118.55 232.50 L 117.82 227.50 C116.72,220.00 117.60,219.50 131.79,219.51 C141.97,219.53 144.57,219.89 151.69,222.33 C156.20,223.87 162.50,226.83 165.69,228.91 C172.67,233.45 258.00,317.58 258.00,319.92 C258.00,320.80 249.56,329.95 239.24,340.26 L 220.48 359.00 L 211.74 359.00 C206.93,359.00 203.00,358.67 203.00,358.26 ZM 145.52 275.34 C125.35,271.02 108.66,256.43 102.98,238.14 C101.09,232.09 101.00,228.72 101.00,166.77 L 101.00 101.76 L 161.71 102.42 C195.10,102.79 222.53,103.20 222.67,103.33 C222.80,103.46 221.57,106.38 219.93,109.82 L 216.96 116.06 L 165.73 115.97 L 114.50 115.87 L 114.24 172.15 C113.96,234.12 113.98,234.43 120.08,243.47 C126.24,252.59 132.67,257.50 143.17,261.09 C148.18,262.81 152.62,263.36 164.50,263.74 L 179.50 264.21 L 185.25 269.82 C188.41,272.91 191.00,275.79 191.00,276.22 C191.00,277.68 153.00,276.94 145.52,275.34 ZM 215.72 271.22 C212.57,268.04 210.00,265.12 210.00,264.72 C210.00,264.32 222.17,264.00 237.05,264.00 L 264.11 264.00 L 263.80 207.75 C263.50,151.77 263.49,151.47 261.17,145.00 C259.89,141.43 257.52,136.42 255.89,133.87 C252.99,129.31 244.29,120.58 240.46,118.38 C238.57,117.29 238.61,117.10 241.64,112.88 C246.54,106.04 248.43,106.37 257.77,115.69 C266.80,124.69 271.73,133.23 274.92,145.44 C276.92,153.06 277.00,155.82 277.00,215.19 L 277.00 277.00 L 249.22 277.00 L 221.44 277.00 L 215.72 271.22 ZM 362.94 276.25 C362.91,275.84 362.90,263.35 362.93,248.50 L 362.97 221.50 L 369.24 215.50 L 375.50 209.50 L 375.77 236.75 L 376.03 264.00 L 429.88 264.00 C461.47,264.00 485.95,263.59 489.11,263.00 C497.36,261.47 507.93,255.80 514.29,249.49 C517.37,246.44 520.16,243.06 520.51,241.97 C521.59,238.57 526.60,240.14 531.23,245.32 C532.87,247.16 532.87,247.41 531.23,250.22 C527.83,256.04 515.43,266.72 507.81,270.38 C494.08,276.99 494.31,276.97 425.25,276.99 C391.01,276.99 362.97,276.66 362.94,276.25 ZM 300.25 239.79 L 281.00 220.60 L 281.00 211.80 C281.00,206.96 281.25,203.00 281.55,203.00 C281.86,203.00 290.39,211.32 300.51,221.50 C310.64,231.68 319.29,240.00 319.75,240.00 C320.21,240.00 338.36,222.11 360.10,200.25 C397.76,162.36 399.77,160.16 402.91,153.20 C407.22,143.64 408.79,133.77 407.19,126.17 C405.73,119.27 406.82,118.00 414.15,118.00 C418.92,118.00 418.92,118.01 420.08,122.25 C422.97,132.85 419.16,152.35 411.73,164.95 C409.57,168.62 394.00,185.04 364.59,214.71 C340.44,239.07 320.41,259.00 320.09,258.99 C319.76,258.99 310.84,250.35 300.25,239.79 ZM 529.75 220.18 L 524.00 217.55 L 524.00 165.74 L 524.00 113.92 L 466.25 114.21 L 408.50 114.50 L 401.27 117.89 C396.18,120.27 392.39,123.00 388.48,127.11 C379.10,136.94 376.00,146.69 376.00,166.32 L 376.00 179.22 L 369.52 185.86 L 363.04 192.50 L 363.03 172.00 C363.03,149.26 364.12,142.63 369.79,130.78 C375.30,119.24 386.53,109.18 399.96,103.74 C405.48,101.51 405.76,101.50 470.92,101.22 C506.90,101.07 536.67,101.29 537.06,101.72 C537.92,102.66 536.98,223.04 536.11,222.90 C535.77,222.85 532.91,221.62 529.75,220.18 ZM 246.80 186.25 C233.51,172.86 231.03,170.02 226.91,163.50 C216.69,147.30 215.66,127.48 224.10,109.50 C226.55,104.27 232.78,97.61 272.47,57.75 C297.52,32.59 318.36,12.00 318.77,12.00 C319.17,12.00 338.83,31.33 362.45,54.95 C403.11,95.62 405.26,97.95 402.95,98.84 C401.60,99.36 398.54,100.58 396.14,101.55 L 391.77 103.31 L 355.94 67.40 C336.23,47.66 319.51,31.37 318.78,31.22 C318.06,31.07 299.64,48.84 277.86,70.72 C232.10,116.68 232.95,115.54 232.22,131.51 C231.49,147.37 235.26,155.52 250.92,172.00 L 259.95 181.50 L 259.97 190.25 C259.99,195.06 259.88,199.00 259.73,199.00 C259.58,199.00 253.76,193.26 246.80,186.25 Z" fill="rgba(0,0,0,1)"/>
</g>
</svg>