<svg width="30" height="30" viewBox="0 0 30 30" fill="none" xmlns="http://www.w3.org/2000/svg">
<path d="M15.0075 5.36914C11.67 5.36914 8.335 6.34914 5.45125 8.31039H0L2.45375 10.9791C1.33576 11.9977 0.552021 13.3307 0.2055 14.8029C-0.14102 16.2751 -0.0341181 17.8177 0.512164 19.228C1.05845 20.6383 2.01856 21.8504 3.26637 22.7051C4.51417 23.5597 5.99132 24.0169 7.50375 24.0166C9.39343 24.0178 11.2134 23.3032 12.5975 22.0166L15 24.6316L17.4025 22.0191C18.7853 23.305 20.6042 24.0188 22.4925 24.0166C24.4812 24.0166 26.3885 23.2268 27.7949 21.8208C29.2014 20.4148 29.9918 18.5078 29.9925 16.5191C29.9938 15.4762 29.7768 14.4444 29.3555 13.4903C28.9342 12.5362 28.3179 11.6808 27.5463 10.9791L30 8.31039H24.5625C21.7453 6.39233 18.4157 5.36739 15.0075 5.36914ZM15 7.81914C16.9137 7.81914 18.8288 8.19789 20.63 8.94789C17.4287 10.1729 15 13.0379 15 16.3754C15 13.0366 12.5725 10.1729 9.37 8.94789C11.1537 8.20374 13.0673 7.81927 15 7.81914ZM7.5025 11.4466C8.16879 11.4466 8.82856 11.5779 9.44414 11.8329C10.0597 12.0878 10.619 12.4616 11.0902 12.9327C11.5613 13.4039 11.9351 13.9632 12.19 14.5788C12.445 15.1943 12.5763 15.8541 12.5763 16.5204C12.5763 17.1867 12.445 17.8465 12.19 18.462C11.9351 19.0776 11.5613 19.6369 11.0902 20.1081C10.619 20.5792 10.0597 20.9529 9.44414 21.2079C8.82856 21.4629 8.16879 21.5941 7.5025 21.5941C6.15686 21.5941 4.86633 21.0596 3.91482 20.1081C2.9633 19.1566 2.42875 17.866 2.42875 16.5204C2.42875 15.1748 2.9633 13.8842 3.91482 12.9327C4.86633 11.9812 6.15686 11.4466 7.5025 11.4466ZM22.4925 11.4491C23.1585 11.4489 23.8181 11.5798 24.4336 11.8345C25.049 12.0892 25.6083 12.4625 26.0794 12.9333C26.5505 13.4041 26.9243 13.9631 27.1795 14.5784C27.4346 15.1936 27.566 15.8531 27.5662 16.5191C27.5665 17.1852 27.4356 17.8448 27.1809 18.4602C26.9262 19.0757 26.5529 19.6349 26.0821 20.1061C25.6113 20.5772 25.0523 20.951 24.437 21.2061C23.8218 21.4612 23.1623 21.5926 22.4963 21.5929C21.1511 21.5934 19.8609 21.0595 18.9093 20.1087C17.9578 19.1579 17.423 17.868 17.4225 16.5229C17.422 15.1777 17.9559 13.8875 18.9067 12.936C19.8575 11.9845 21.1474 11.4496 22.4925 11.4491ZM7.5025 13.8616C6.79702 13.8616 6.12044 14.1419 5.6216 14.6407C5.12275 15.1396 4.8425 15.8162 4.8425 16.5216C4.8425 17.2271 5.12275 17.9037 5.6216 18.4025C6.12044 18.9014 6.79702 19.1816 7.5025 19.1816C8.20798 19.1816 8.88456 18.9014 9.3834 18.4025C9.88225 17.9037 10.1625 17.2271 10.1625 16.5216C10.1625 15.8162 9.88225 15.1396 9.3834 14.6407C8.88456 14.1419 8.20798 13.8616 7.5025 13.8616ZM22.4925 13.8616C21.787 13.8616 21.1104 14.1419 20.6116 14.6407C20.1127 15.1396 19.8325 15.8162 19.8325 16.5216C19.8325 17.2271 20.1127 17.9037 20.6116 18.4025C21.1104 18.9014 21.787 19.1816 22.4925 19.1816C23.198 19.1816 23.8746 18.9014 24.3734 18.4025C24.8723 17.9037 25.1525 17.2271 25.1525 16.5216C25.1525 15.8162 24.8723 15.1396 24.3734 14.6407C23.8746 14.1419 23.198 13.8616 22.4925 13.8616Z" fill="black"/>
</svg>
